<mxfile host="app.diagrams.net" modified="2023-11-14T09:33:30.866Z" agent="Mozilla/5.0 (Windows NT 10.0; Win64; x64) AppleWebKit/537.36 (KHTML, like Gecko) Chrome/119.0.0.0 Safari/537.36" etag="A5ib_ZW_5PPi7y3COApq" version="22.1.0" type="github">
  <diagram name="Page-1" id="74b105a0-9070-1c63-61bc-23e55f88626e">
    <mxGraphModel dx="2183" dy="2416" grid="1" gridSize="10" guides="1" tooltips="1" connect="1" arrows="1" fold="1" page="1" pageScale="1.5" pageWidth="1169" pageHeight="826" background="none" math="0" shadow="0">
      <root>
        <mxCell id="0" style=";html=1;" />
        <mxCell id="1" style=";html=1;" parent="0" />
        <mxCell id="10b056a9c633e61c-30" value="Title" style="text;strokeColor=none;fillColor=none;html=1;fontSize=24;fontStyle=1;verticalAlign=middle;align=center;" parent="1" vertex="1">
          <mxGeometry x="50" y="-180" width="1590" height="180" as="geometry" />
        </mxCell>
        <mxCell id="Q2I1ikt3H9KRh0XBNsud-1" value="&lt;font style=&quot;font-size: 16px;&quot;&gt;&lt;b&gt;创建实时同步任务(源表=&amp;gt;临时表)&lt;/b&gt;&lt;/font&gt;" style="rounded=1;whiteSpace=wrap;html=1;fillColor=#dae8fc;strokeColor=#6c8ebf;" vertex="1" parent="1">
          <mxGeometry x="190" y="190" width="340" height="60" as="geometry" />
        </mxCell>
        <mxCell id="Q2I1ikt3H9KRh0XBNsud-2" value="&lt;font style=&quot;font-size: 16px;&quot;&gt;&lt;b&gt;开始&lt;/b&gt;&lt;/font&gt;" style="rounded=1;whiteSpace=wrap;html=1;fillColor=#dae8fc;strokeColor=#6c8ebf;" vertex="1" parent="1">
          <mxGeometry x="289" y="50" width="120" height="60" as="geometry" />
        </mxCell>
        <mxCell id="Q2I1ikt3H9KRh0XBNsud-4" value="&lt;ol style=&quot;font-size: 18px;&quot;&gt;&lt;li style=&quot;&quot;&gt;创建重构的临时表(以_2311结尾)&lt;/li&gt;&lt;li&gt;创建源表同步到临时表的物化视图&lt;/li&gt;&lt;li&gt;创建临时表session_record与session_record物化视图&lt;/li&gt;&lt;/ol&gt;" style="text;strokeColor=none;fillColor=none;html=1;whiteSpace=wrap;verticalAlign=middle;overflow=hidden;" vertex="1" parent="1">
          <mxGeometry x="730" y="165" width="560" height="110" as="geometry" />
        </mxCell>
        <mxCell id="Q2I1ikt3H9KRh0XBNsud-16" value="&lt;font style=&quot;font-size: 16px;&quot;&gt;&lt;b&gt;国家中心Gohangout(XX_2311 task)&amp;nbsp; =&amp;gt; 临时表&lt;/b&gt;&lt;/font&gt;" style="rounded=1;whiteSpace=wrap;html=1;fillColor=#dae8fc;strokeColor=#6c8ebf;" vertex="1" parent="1">
          <mxGeometry x="155" y="390" width="410" height="60" as="geometry" />
        </mxCell>
        <mxCell id="Q2I1ikt3H9KRh0XBNsud-17" value="&lt;font style=&quot;font-size: 16px;&quot;&gt;&lt;b&gt;&lt;span style=&quot;font-size: 16px;&quot;&gt;升级各个分数据中心:&lt;br&gt;&lt;/span&gt;分中心Kafka =&amp;gt; 分中心ETL(XX_completed_2311)&lt;br&gt;&lt;br&gt;&lt;/b&gt;&lt;/font&gt;" style="rounded=1;whiteSpace=wrap;html=1;fillColor=#dae8fc;strokeColor=#6c8ebf;" vertex="1" parent="1">
          <mxGeometry x="130" y="590" width="490" height="90" as="geometry" />
        </mxCell>
        <mxCell id="Q2I1ikt3H9KRh0XBNsud-18" value="&lt;ol style=&quot;font-size: 18px;&quot;&gt;&lt;li style=&quot;&quot;&gt;创建kafka临时topic(以_2311结尾)&lt;/li&gt;&lt;li&gt;启动Gohangout同步临时表任务&lt;/li&gt;&lt;/ol&gt;" style="text;strokeColor=none;fillColor=none;html=1;whiteSpace=wrap;verticalAlign=middle;overflow=hidden;" vertex="1" parent="1">
          <mxGeometry x="720" y="365" width="420" height="110" as="geometry" />
        </mxCell>
        <mxCell id="Q2I1ikt3H9KRh0XBNsud-19" value="&lt;ol style=&quot;font-size: 18px;&quot;&gt;&lt;li style=&quot;&quot;&gt;启动ETL任务发送到国家中心临时topic(以_2311结尾)&lt;/li&gt;&lt;/ol&gt;" style="text;strokeColor=none;fillColor=none;html=1;whiteSpace=wrap;verticalAlign=middle;overflow=hidden;" vertex="1" parent="1">
          <mxGeometry x="710" y="580" width="520" height="110" as="geometry" />
        </mxCell>
        <mxCell id="Q2I1ikt3H9KRh0XBNsud-20" value="&lt;font style=&quot;font-size: 16px;&quot;&gt;&lt;b&gt;等待所有分中心升级完成&lt;/b&gt;&lt;/font&gt;" style="rounded=1;whiteSpace=wrap;html=1;fillColor=#dae8fc;strokeColor=#6c8ebf;" vertex="1" parent="1">
          <mxGeometry x="190" y="760" width="340" height="60" as="geometry" />
        </mxCell>
        <mxCell id="Q2I1ikt3H9KRh0XBNsud-21" value="&lt;b&gt;&lt;font style=&quot;font-size: 16px;&quot;&gt;临时表切换为目标表&lt;br&gt;源表切换为历史表&lt;/font&gt;&lt;/b&gt;" style="rounded=1;whiteSpace=wrap;html=1;fillColor=#dae8fc;strokeColor=#6c8ebf;" vertex="1" parent="1">
          <mxGeometry x="179" y="960" width="340" height="60" as="geometry" />
        </mxCell>
        <mxCell id="Q2I1ikt3H9KRh0XBNsud-22" value="&lt;font style=&quot;font-size: 16px;&quot;&gt;&lt;b&gt;目标表生效&lt;/b&gt;&lt;/font&gt;" style="rounded=1;whiteSpace=wrap;html=1;fillColor=#dae8fc;strokeColor=#6c8ebf;" vertex="1" parent="1">
          <mxGeometry x="179" y="1070" width="340" height="60" as="geometry" />
        </mxCell>
        <mxCell id="Q2I1ikt3H9KRh0XBNsud-23" value="&lt;span style=&quot;font-size: 16px;&quot;&gt;&lt;b&gt;验证&lt;/b&gt;&lt;/span&gt;" style="rounded=1;whiteSpace=wrap;html=1;fillColor=#dae8fc;strokeColor=#6c8ebf;" vertex="1" parent="1">
          <mxGeometry x="190" y="870" width="340" height="60" as="geometry" />
        </mxCell>
        <mxCell id="Q2I1ikt3H9KRh0XBNsud-24" value="" style="rounded=1;whiteSpace=wrap;html=1;" vertex="1" parent="1">
          <mxGeometry x="65" y="1440" width="755" height="330" as="geometry" />
        </mxCell>
        <mxCell id="Q2I1ikt3H9KRh0XBNsud-25" value="" style="rounded=1;whiteSpace=wrap;html=1;fillColor=#dae8fc;strokeColor=#6c8ebf;" vertex="1" parent="1">
          <mxGeometry x="480" y="1460" width="270" height="230" as="geometry" />
        </mxCell>
        <mxCell id="Q2I1ikt3H9KRh0XBNsud-26" value="" style="rounded=1;whiteSpace=wrap;html=1;fillColor=#dae8fc;strokeColor=#6c8ebf;" vertex="1" parent="1">
          <mxGeometry x="110" y="1460" width="260" height="240" as="geometry" />
        </mxCell>
        <mxCell id="Q2I1ikt3H9KRh0XBNsud-29" value="&lt;font style=&quot;font-size: 14px;&quot;&gt;源Gohangout任务&lt;/font&gt;" style="text;html=1;strokeColor=none;fillColor=none;align=center;verticalAlign=middle;whiteSpace=wrap;rounded=0;" vertex="1" parent="1">
          <mxGeometry x="170" y="1660" width="130" height="30" as="geometry" />
        </mxCell>
        <mxCell id="Q2I1ikt3H9KRh0XBNsud-30" value="&lt;font style=&quot;font-size: 14px;&quot;&gt;源表(23-07/2310版本)&lt;/font&gt;" style="text;html=1;strokeColor=none;fillColor=none;align=center;verticalAlign=middle;whiteSpace=wrap;rounded=0;" vertex="1" parent="1">
          <mxGeometry x="540" y="1650" width="140" height="30" as="geometry" />
        </mxCell>
        <mxCell id="Q2I1ikt3H9KRh0XBNsud-31" value="session_record_local" style="rounded=0;whiteSpace=wrap;html=1;fillColor=#ffe6cc;strokeColor=#d79b00;" vertex="1" parent="1">
          <mxGeometry x="530" y="1490" width="170" height="40" as="geometry" />
        </mxCell>
        <mxCell id="Q2I1ikt3H9KRh0XBNsud-32" value="security_event_local" style="rounded=0;whiteSpace=wrap;html=1;fillColor=#ffe6cc;strokeColor=#d79b00;" vertex="1" parent="1">
          <mxGeometry x="530" y="1550" width="170" height="40" as="geometry" />
        </mxCell>
        <mxCell id="Q2I1ikt3H9KRh0XBNsud-33" value="。。。" style="rounded=0;whiteSpace=wrap;html=1;fillColor=#ffe6cc;strokeColor=#d79b00;" vertex="1" parent="1">
          <mxGeometry x="530" y="1600" width="170" height="40" as="geometry" />
        </mxCell>
        <mxCell id="Q2I1ikt3H9KRh0XBNsud-34" value="session_record_task" style="rounded=0;whiteSpace=wrap;html=1;fillColor=#ffe6cc;strokeColor=#d79b00;" vertex="1" parent="1">
          <mxGeometry x="150" y="1490" width="170" height="40" as="geometry" />
        </mxCell>
        <mxCell id="Q2I1ikt3H9KRh0XBNsud-35" value="security_event_task" style="rounded=0;whiteSpace=wrap;html=1;fillColor=#ffe6cc;strokeColor=#d79b00;" vertex="1" parent="1">
          <mxGeometry x="150" y="1550" width="170" height="40" as="geometry" />
        </mxCell>
        <mxCell id="Q2I1ikt3H9KRh0XBNsud-36" value="。。。" style="rounded=0;whiteSpace=wrap;html=1;fillColor=#ffe6cc;strokeColor=#d79b00;" vertex="1" parent="1">
          <mxGeometry x="150" y="1600" width="170" height="40" as="geometry" />
        </mxCell>
        <mxCell id="Q2I1ikt3H9KRh0XBNsud-37" value="升级前" style="text;strokeColor=none;fillColor=none;html=1;fontSize=24;fontStyle=1;verticalAlign=middle;align=center;" vertex="1" parent="1">
          <mxGeometry x="370" y="1720" width="100" height="40" as="geometry" />
        </mxCell>
        <mxCell id="Q2I1ikt3H9KRh0XBNsud-43" value="" style="shape=flexArrow;endArrow=classic;html=1;rounded=0;" edge="1" parent="1">
          <mxGeometry width="50" height="50" relative="1" as="geometry">
            <mxPoint x="380" y="1520" as="sourcePoint" />
            <mxPoint x="450" y="1520" as="targetPoint" />
          </mxGeometry>
        </mxCell>
        <mxCell id="Q2I1ikt3H9KRh0XBNsud-44" value="" style="shape=flexArrow;endArrow=classic;html=1;rounded=0;" edge="1" parent="1">
          <mxGeometry width="50" height="50" relative="1" as="geometry">
            <mxPoint x="385" y="1574.5" as="sourcePoint" />
            <mxPoint x="455" y="1574.5" as="targetPoint" />
          </mxGeometry>
        </mxCell>
        <mxCell id="Q2I1ikt3H9KRh0XBNsud-45" value="" style="rounded=1;whiteSpace=wrap;html=1;" vertex="1" parent="1">
          <mxGeometry x="50" y="1830" width="1180" height="340" as="geometry" />
        </mxCell>
        <mxCell id="Q2I1ikt3H9KRh0XBNsud-46" value="" style="rounded=1;whiteSpace=wrap;html=1;fillColor=#dae8fc;strokeColor=#6c8ebf;" vertex="1" parent="1">
          <mxGeometry x="465" y="1850" width="270" height="230" as="geometry" />
        </mxCell>
        <mxCell id="Q2I1ikt3H9KRh0XBNsud-47" value="" style="rounded=1;whiteSpace=wrap;html=1;fillColor=#dae8fc;strokeColor=#6c8ebf;" vertex="1" parent="1">
          <mxGeometry x="95" y="1850" width="260" height="240" as="geometry" />
        </mxCell>
        <mxCell id="Q2I1ikt3H9KRh0XBNsud-48" value="&lt;font style=&quot;font-size: 14px;&quot;&gt;源Gohangout任务&lt;/font&gt;" style="text;html=1;strokeColor=none;fillColor=none;align=center;verticalAlign=middle;whiteSpace=wrap;rounded=0;" vertex="1" parent="1">
          <mxGeometry x="155" y="2050" width="130" height="30" as="geometry" />
        </mxCell>
        <mxCell id="Q2I1ikt3H9KRh0XBNsud-49" value="&lt;font style=&quot;font-size: 14px;&quot;&gt;源表(23-07/2310版本)&lt;/font&gt;" style="text;html=1;strokeColor=none;fillColor=none;align=center;verticalAlign=middle;whiteSpace=wrap;rounded=0;" vertex="1" parent="1">
          <mxGeometry x="525" y="2040" width="140" height="30" as="geometry" />
        </mxCell>
        <mxCell id="Q2I1ikt3H9KRh0XBNsud-50" value="session_record_local" style="rounded=0;whiteSpace=wrap;html=1;fillColor=#ffe6cc;strokeColor=#d79b00;" vertex="1" parent="1">
          <mxGeometry x="515" y="1880" width="170" height="40" as="geometry" />
        </mxCell>
        <mxCell id="Q2I1ikt3H9KRh0XBNsud-51" value="security_event_local" style="rounded=0;whiteSpace=wrap;html=1;fillColor=#ffe6cc;strokeColor=#d79b00;" vertex="1" parent="1">
          <mxGeometry x="515" y="1940" width="170" height="40" as="geometry" />
        </mxCell>
        <mxCell id="Q2I1ikt3H9KRh0XBNsud-52" value="。。。" style="rounded=0;whiteSpace=wrap;html=1;fillColor=#ffe6cc;strokeColor=#d79b00;" vertex="1" parent="1">
          <mxGeometry x="515" y="1990" width="170" height="40" as="geometry" />
        </mxCell>
        <mxCell id="Q2I1ikt3H9KRh0XBNsud-53" value="session_record_task" style="rounded=0;whiteSpace=wrap;html=1;fillColor=#ffe6cc;strokeColor=#d79b00;" vertex="1" parent="1">
          <mxGeometry x="135" y="1880" width="170" height="40" as="geometry" />
        </mxCell>
        <mxCell id="Q2I1ikt3H9KRh0XBNsud-54" value="security_event_task" style="rounded=0;whiteSpace=wrap;html=1;fillColor=#ffe6cc;strokeColor=#d79b00;" vertex="1" parent="1">
          <mxGeometry x="135" y="1940" width="170" height="40" as="geometry" />
        </mxCell>
        <mxCell id="Q2I1ikt3H9KRh0XBNsud-55" value="。。。" style="rounded=0;whiteSpace=wrap;html=1;fillColor=#ffe6cc;strokeColor=#d79b00;" vertex="1" parent="1">
          <mxGeometry x="135" y="1990" width="170" height="40" as="geometry" />
        </mxCell>
        <mxCell id="Q2I1ikt3H9KRh0XBNsud-56" value="创建实时同步任务(源表=&amp;gt;临时表)" style="text;strokeColor=none;fillColor=none;html=1;fontSize=24;fontStyle=1;verticalAlign=middle;align=center;" vertex="1" parent="1">
          <mxGeometry x="430" y="2120" width="380" height="40" as="geometry" />
        </mxCell>
        <mxCell id="Q2I1ikt3H9KRh0XBNsud-57" value="" style="shape=flexArrow;endArrow=classic;html=1;rounded=0;" edge="1" parent="1">
          <mxGeometry width="50" height="50" relative="1" as="geometry">
            <mxPoint x="370" y="1910" as="sourcePoint" />
            <mxPoint x="440" y="1910" as="targetPoint" />
          </mxGeometry>
        </mxCell>
        <mxCell id="Q2I1ikt3H9KRh0XBNsud-58" value="" style="shape=flexArrow;endArrow=classic;html=1;rounded=0;" edge="1" parent="1">
          <mxGeometry width="50" height="50" relative="1" as="geometry">
            <mxPoint x="370" y="1960" as="sourcePoint" />
            <mxPoint x="440" y="1960" as="targetPoint" />
          </mxGeometry>
        </mxCell>
        <mxCell id="Q2I1ikt3H9KRh0XBNsud-59" style="edgeStyle=orthogonalEdgeStyle;rounded=0;orthogonalLoop=1;jettySize=auto;html=1;exitX=0.5;exitY=1;exitDx=0;exitDy=0;" edge="1" parent="1" source="Q2I1ikt3H9KRh0XBNsud-45" target="Q2I1ikt3H9KRh0XBNsud-45">
          <mxGeometry relative="1" as="geometry" />
        </mxCell>
        <mxCell id="Q2I1ikt3H9KRh0XBNsud-61" value="" style="rounded=1;whiteSpace=wrap;html=1;fillColor=#dae8fc;strokeColor=#6c8ebf;" vertex="1" parent="1">
          <mxGeometry x="880" y="1850" width="270" height="230" as="geometry" />
        </mxCell>
        <mxCell id="Q2I1ikt3H9KRh0XBNsud-62" value="&lt;font color=&quot;#ff0000&quot; style=&quot;font-size: 14px;&quot;&gt;临时表(23-11版本)&lt;/font&gt;" style="text;html=1;strokeColor=none;fillColor=none;align=center;verticalAlign=middle;whiteSpace=wrap;rounded=0;" vertex="1" parent="1">
          <mxGeometry x="940" y="2040" width="140" height="30" as="geometry" />
        </mxCell>
        <mxCell id="Q2I1ikt3H9KRh0XBNsud-63" value="session_record_local_2311" style="rounded=0;whiteSpace=wrap;html=1;fillColor=#ffe6cc;strokeColor=#d79b00;" vertex="1" parent="1">
          <mxGeometry x="930" y="1880" width="170" height="40" as="geometry" />
        </mxCell>
        <mxCell id="Q2I1ikt3H9KRh0XBNsud-64" value="security_event_local_2311" style="rounded=0;whiteSpace=wrap;html=1;fillColor=#ffe6cc;strokeColor=#d79b00;" vertex="1" parent="1">
          <mxGeometry x="930" y="1940" width="170" height="40" as="geometry" />
        </mxCell>
        <mxCell id="Q2I1ikt3H9KRh0XBNsud-65" value="。。。" style="rounded=0;whiteSpace=wrap;html=1;fillColor=#ffe6cc;strokeColor=#d79b00;" vertex="1" parent="1">
          <mxGeometry x="930" y="1990" width="170" height="40" as="geometry" />
        </mxCell>
        <mxCell id="Q2I1ikt3H9KRh0XBNsud-66" value="" style="shape=flexArrow;endArrow=classic;html=1;rounded=0;" edge="1" parent="1">
          <mxGeometry width="50" height="50" relative="1" as="geometry">
            <mxPoint x="770" y="1899.5" as="sourcePoint" />
            <mxPoint x="840" y="1899.5" as="targetPoint" />
          </mxGeometry>
        </mxCell>
        <mxCell id="Q2I1ikt3H9KRh0XBNsud-67" value="" style="shape=flexArrow;endArrow=classic;html=1;rounded=0;" edge="1" parent="1">
          <mxGeometry width="50" height="50" relative="1" as="geometry">
            <mxPoint x="770" y="1959.5" as="sourcePoint" />
            <mxPoint x="840" y="1959.5" as="targetPoint" />
          </mxGeometry>
        </mxCell>
        <mxCell id="Q2I1ikt3H9KRh0XBNsud-85" value="" style="html=1;shadow=0;dashed=0;align=center;verticalAlign=middle;shape=mxgraph.arrows2.uTurnArrow;dy=6.5;arrowHead=23;dx2=46;direction=west;fontSize=10;fillColor=#d5e8d4;strokeColor=#82b366;fillOpacity=100;" vertex="1" parent="1">
          <mxGeometry x="1100" y="1900" width="100" height="70" as="geometry" />
        </mxCell>
        <mxCell id="Q2I1ikt3H9KRh0XBNsud-89" value="" style="rounded=1;whiteSpace=wrap;html=1;" vertex="1" parent="1">
          <mxGeometry x="40" y="2220" width="1600" height="430" as="geometry" />
        </mxCell>
        <mxCell id="Q2I1ikt3H9KRh0XBNsud-90" value="" style="rounded=1;whiteSpace=wrap;html=1;fillColor=#dae8fc;strokeColor=#6c8ebf;" vertex="1" parent="1">
          <mxGeometry x="455" y="2290" width="270" height="230" as="geometry" />
        </mxCell>
        <mxCell id="Q2I1ikt3H9KRh0XBNsud-91" value="" style="rounded=1;whiteSpace=wrap;html=1;fillColor=#dae8fc;strokeColor=#6c8ebf;" vertex="1" parent="1">
          <mxGeometry x="85" y="2290" width="260" height="240" as="geometry" />
        </mxCell>
        <mxCell id="Q2I1ikt3H9KRh0XBNsud-92" value="&lt;font style=&quot;font-size: 14px;&quot;&gt;源Gohangout任务&lt;/font&gt;" style="text;html=1;strokeColor=none;fillColor=none;align=center;verticalAlign=middle;whiteSpace=wrap;rounded=0;" vertex="1" parent="1">
          <mxGeometry x="145" y="2490" width="130" height="30" as="geometry" />
        </mxCell>
        <mxCell id="Q2I1ikt3H9KRh0XBNsud-93" value="&lt;font style=&quot;font-size: 14px;&quot;&gt;源表(23-07/2310版本)&lt;/font&gt;" style="text;html=1;strokeColor=none;fillColor=none;align=center;verticalAlign=middle;whiteSpace=wrap;rounded=0;" vertex="1" parent="1">
          <mxGeometry x="515" y="2480" width="140" height="30" as="geometry" />
        </mxCell>
        <mxCell id="Q2I1ikt3H9KRh0XBNsud-94" value="session_record_local" style="rounded=0;whiteSpace=wrap;html=1;fillColor=#ffe6cc;strokeColor=#d79b00;" vertex="1" parent="1">
          <mxGeometry x="505" y="2320" width="170" height="40" as="geometry" />
        </mxCell>
        <mxCell id="Q2I1ikt3H9KRh0XBNsud-95" value="security_event_local" style="rounded=0;whiteSpace=wrap;html=1;fillColor=#ffe6cc;strokeColor=#d79b00;" vertex="1" parent="1">
          <mxGeometry x="505" y="2380" width="170" height="40" as="geometry" />
        </mxCell>
        <mxCell id="Q2I1ikt3H9KRh0XBNsud-96" value="。。。" style="rounded=0;whiteSpace=wrap;html=1;fillColor=#ffe6cc;strokeColor=#d79b00;" vertex="1" parent="1">
          <mxGeometry x="505" y="2430" width="170" height="40" as="geometry" />
        </mxCell>
        <mxCell id="Q2I1ikt3H9KRh0XBNsud-97" value="session_record_task" style="rounded=0;whiteSpace=wrap;html=1;fillColor=#ffe6cc;strokeColor=#d79b00;" vertex="1" parent="1">
          <mxGeometry x="125" y="2320" width="170" height="40" as="geometry" />
        </mxCell>
        <mxCell id="Q2I1ikt3H9KRh0XBNsud-98" value="security_event_task" style="rounded=0;whiteSpace=wrap;html=1;fillColor=#ffe6cc;strokeColor=#d79b00;" vertex="1" parent="1">
          <mxGeometry x="125" y="2380" width="170" height="40" as="geometry" />
        </mxCell>
        <mxCell id="Q2I1ikt3H9KRh0XBNsud-99" value="。。。" style="rounded=0;whiteSpace=wrap;html=1;fillColor=#ffe6cc;strokeColor=#d79b00;" vertex="1" parent="1">
          <mxGeometry x="125" y="2430" width="170" height="40" as="geometry" />
        </mxCell>
        <mxCell id="Q2I1ikt3H9KRh0XBNsud-100" value="升级数据中心" style="text;strokeColor=none;fillColor=none;html=1;fontSize=24;fontStyle=1;verticalAlign=middle;align=center;" vertex="1" parent="1">
          <mxGeometry x="640" y="2580" width="380" height="40" as="geometry" />
        </mxCell>
        <mxCell id="Q2I1ikt3H9KRh0XBNsud-101" value="" style="shape=flexArrow;endArrow=classic;html=1;rounded=0;" edge="1" parent="1">
          <mxGeometry width="50" height="50" relative="1" as="geometry">
            <mxPoint x="360" y="2350" as="sourcePoint" />
            <mxPoint x="430" y="2350" as="targetPoint" />
          </mxGeometry>
        </mxCell>
        <mxCell id="Q2I1ikt3H9KRh0XBNsud-102" value="" style="shape=flexArrow;endArrow=classic;html=1;rounded=0;" edge="1" parent="1">
          <mxGeometry width="50" height="50" relative="1" as="geometry">
            <mxPoint x="360" y="2400" as="sourcePoint" />
            <mxPoint x="430" y="2400" as="targetPoint" />
          </mxGeometry>
        </mxCell>
        <mxCell id="Q2I1ikt3H9KRh0XBNsud-103" style="edgeStyle=orthogonalEdgeStyle;rounded=0;orthogonalLoop=1;jettySize=auto;html=1;exitX=0.5;exitY=1;exitDx=0;exitDy=0;" edge="1" parent="1" source="Q2I1ikt3H9KRh0XBNsud-89" target="Q2I1ikt3H9KRh0XBNsud-89">
          <mxGeometry relative="1" as="geometry" />
        </mxCell>
        <mxCell id="Q2I1ikt3H9KRh0XBNsud-104" value="" style="rounded=1;whiteSpace=wrap;html=1;fillColor=#dae8fc;strokeColor=#6c8ebf;" vertex="1" parent="1">
          <mxGeometry x="870" y="2290" width="270" height="230" as="geometry" />
        </mxCell>
        <mxCell id="Q2I1ikt3H9KRh0XBNsud-105" value="&lt;font style=&quot;font-size: 14px;&quot;&gt;临时表(23-11版本)&lt;/font&gt;" style="text;html=1;strokeColor=none;fillColor=none;align=center;verticalAlign=middle;whiteSpace=wrap;rounded=0;" vertex="1" parent="1">
          <mxGeometry x="930" y="2480" width="140" height="30" as="geometry" />
        </mxCell>
        <mxCell id="Q2I1ikt3H9KRh0XBNsud-106" value="session_record_local_2311" style="rounded=0;whiteSpace=wrap;html=1;fillColor=#ffe6cc;strokeColor=#d79b00;" vertex="1" parent="1">
          <mxGeometry x="920" y="2320" width="170" height="40" as="geometry" />
        </mxCell>
        <mxCell id="Q2I1ikt3H9KRh0XBNsud-107" value="security_event_local_2311" style="rounded=0;whiteSpace=wrap;html=1;fillColor=#ffe6cc;strokeColor=#d79b00;" vertex="1" parent="1">
          <mxGeometry x="920" y="2380" width="170" height="40" as="geometry" />
        </mxCell>
        <mxCell id="Q2I1ikt3H9KRh0XBNsud-108" value="。。。" style="rounded=0;whiteSpace=wrap;html=1;fillColor=#ffe6cc;strokeColor=#d79b00;" vertex="1" parent="1">
          <mxGeometry x="920" y="2430" width="170" height="40" as="geometry" />
        </mxCell>
        <mxCell id="Q2I1ikt3H9KRh0XBNsud-109" value="" style="shape=flexArrow;endArrow=classic;html=1;rounded=0;" edge="1" parent="1">
          <mxGeometry width="50" height="50" relative="1" as="geometry">
            <mxPoint x="760" y="2339.5" as="sourcePoint" />
            <mxPoint x="830" y="2339.5" as="targetPoint" />
          </mxGeometry>
        </mxCell>
        <mxCell id="Q2I1ikt3H9KRh0XBNsud-110" value="" style="shape=flexArrow;endArrow=classic;html=1;rounded=0;" edge="1" parent="1">
          <mxGeometry width="50" height="50" relative="1" as="geometry">
            <mxPoint x="760" y="2399.5" as="sourcePoint" />
            <mxPoint x="830" y="2399.5" as="targetPoint" />
          </mxGeometry>
        </mxCell>
        <mxCell id="Q2I1ikt3H9KRh0XBNsud-111" value="" style="html=1;shadow=0;dashed=0;align=center;verticalAlign=middle;shape=mxgraph.arrows2.uTurnArrow;dy=6.5;arrowHead=23;dx2=46;direction=west;fontSize=10;fillColor=#d5e8d4;strokeColor=#82b366;fillOpacity=100;" vertex="1" parent="1">
          <mxGeometry x="1090" y="2340" width="100" height="70" as="geometry" />
        </mxCell>
        <mxCell id="Q2I1ikt3H9KRh0XBNsud-112" value="" style="rounded=1;whiteSpace=wrap;html=1;fillColor=#dae8fc;strokeColor=#6c8ebf;" vertex="1" parent="1">
          <mxGeometry x="1330" y="2290" width="260" height="240" as="geometry" />
        </mxCell>
        <mxCell id="Q2I1ikt3H9KRh0XBNsud-113" value="&lt;font color=&quot;#ff0000&quot; style=&quot;font-size: 14px;&quot;&gt;临时Gohangout任务&lt;/font&gt;" style="text;html=1;strokeColor=none;fillColor=none;align=center;verticalAlign=middle;whiteSpace=wrap;rounded=0;" vertex="1" parent="1">
          <mxGeometry x="1400" y="2485" width="160" height="30" as="geometry" />
        </mxCell>
        <mxCell id="Q2I1ikt3H9KRh0XBNsud-114" value="session_record_2311_task" style="rounded=0;whiteSpace=wrap;html=1;fillColor=#ffe6cc;strokeColor=#d79b00;" vertex="1" parent="1">
          <mxGeometry x="1380" y="2315" width="170" height="40" as="geometry" />
        </mxCell>
        <mxCell id="Q2I1ikt3H9KRh0XBNsud-116" value="。。。" style="rounded=0;whiteSpace=wrap;html=1;fillColor=#ffe6cc;strokeColor=#d79b00;" vertex="1" parent="1">
          <mxGeometry x="1380" y="2425" width="170" height="40" as="geometry" />
        </mxCell>
        <mxCell id="Q2I1ikt3H9KRh0XBNsud-118" value="" style="shape=flexArrow;endArrow=classic;html=1;rounded=0;" edge="1" parent="1">
          <mxGeometry width="50" height="50" relative="1" as="geometry">
            <mxPoint x="1280" y="2340" as="sourcePoint" />
            <mxPoint x="1210" y="2340" as="targetPoint" />
          </mxGeometry>
        </mxCell>
        <mxCell id="Q2I1ikt3H9KRh0XBNsud-119" value="" style="shape=flexArrow;endArrow=classic;html=1;rounded=0;" edge="1" parent="1">
          <mxGeometry width="50" height="50" relative="1" as="geometry">
            <mxPoint x="1280" y="2444.5" as="sourcePoint" />
            <mxPoint x="1210" y="2444.5" as="targetPoint" />
          </mxGeometry>
        </mxCell>
        <mxCell id="Q2I1ikt3H9KRh0XBNsud-136" value="" style="rounded=1;whiteSpace=wrap;html=1;" vertex="1" parent="1">
          <mxGeometry x="45" y="2690" width="1600" height="840" as="geometry" />
        </mxCell>
        <mxCell id="Q2I1ikt3H9KRh0XBNsud-137" value="" style="rounded=1;whiteSpace=wrap;html=1;fillColor=#dae8fc;strokeColor=#6c8ebf;" vertex="1" parent="1">
          <mxGeometry x="465" y="2760" width="270" height="230" as="geometry" />
        </mxCell>
        <mxCell id="Q2I1ikt3H9KRh0XBNsud-138" value="" style="rounded=1;whiteSpace=wrap;html=1;fillColor=#dae8fc;strokeColor=#6c8ebf;" vertex="1" parent="1">
          <mxGeometry x="95" y="2760" width="260" height="240" as="geometry" />
        </mxCell>
        <mxCell id="Q2I1ikt3H9KRh0XBNsud-139" value="&lt;font style=&quot;font-size: 14px;&quot;&gt;源Gohangout任务&lt;/font&gt;" style="text;html=1;strokeColor=none;fillColor=none;align=center;verticalAlign=middle;whiteSpace=wrap;rounded=0;" vertex="1" parent="1">
          <mxGeometry x="155" y="2960" width="130" height="30" as="geometry" />
        </mxCell>
        <mxCell id="Q2I1ikt3H9KRh0XBNsud-140" value="&lt;font style=&quot;font-size: 14px;&quot;&gt;源表(23-07/2310版本)&lt;/font&gt;" style="text;html=1;strokeColor=none;fillColor=none;align=center;verticalAlign=middle;whiteSpace=wrap;rounded=0;" vertex="1" parent="1">
          <mxGeometry x="525" y="2950" width="140" height="30" as="geometry" />
        </mxCell>
        <mxCell id="Q2I1ikt3H9KRh0XBNsud-141" value="session_record_local" style="rounded=0;whiteSpace=wrap;html=1;fillColor=#ffe6cc;strokeColor=#d79b00;" vertex="1" parent="1">
          <mxGeometry x="515" y="2790" width="170" height="40" as="geometry" />
        </mxCell>
        <mxCell id="Q2I1ikt3H9KRh0XBNsud-142" value="security_event_local" style="rounded=0;whiteSpace=wrap;html=1;fillColor=#ffe6cc;strokeColor=#d79b00;" vertex="1" parent="1">
          <mxGeometry x="515" y="2850" width="170" height="40" as="geometry" />
        </mxCell>
        <mxCell id="Q2I1ikt3H9KRh0XBNsud-143" value="。。。" style="rounded=0;whiteSpace=wrap;html=1;fillColor=#ffe6cc;strokeColor=#d79b00;" vertex="1" parent="1">
          <mxGeometry x="515" y="2900" width="170" height="40" as="geometry" />
        </mxCell>
        <mxCell id="Q2I1ikt3H9KRh0XBNsud-144" value="session_record_task" style="rounded=0;whiteSpace=wrap;html=1;fillColor=#ffe6cc;strokeColor=#d79b00;" vertex="1" parent="1">
          <mxGeometry x="135" y="2790" width="170" height="40" as="geometry" />
        </mxCell>
        <mxCell id="Q2I1ikt3H9KRh0XBNsud-145" value="security_event_task" style="rounded=0;whiteSpace=wrap;html=1;fillColor=#ffe6cc;strokeColor=#d79b00;" vertex="1" parent="1">
          <mxGeometry x="135" y="2850" width="170" height="40" as="geometry" />
        </mxCell>
        <mxCell id="Q2I1ikt3H9KRh0XBNsud-146" value="。。。" style="rounded=0;whiteSpace=wrap;html=1;fillColor=#ffe6cc;strokeColor=#d79b00;" vertex="1" parent="1">
          <mxGeometry x="135" y="2900" width="170" height="40" as="geometry" />
        </mxCell>
        <mxCell id="Q2I1ikt3H9KRh0XBNsud-147" value="临时表切换为目标表, 源表切换为历史表，目标表生效" style="text;strokeColor=none;fillColor=none;html=1;fontSize=24;fontStyle=1;verticalAlign=middle;align=center;" vertex="1" parent="1">
          <mxGeometry x="580" y="3470" width="600" height="40" as="geometry" />
        </mxCell>
        <mxCell id="Q2I1ikt3H9KRh0XBNsud-148" value="" style="shape=flexArrow;endArrow=classic;html=1;rounded=0;" edge="1" parent="1">
          <mxGeometry width="50" height="50" relative="1" as="geometry">
            <mxPoint x="370" y="2820" as="sourcePoint" />
            <mxPoint x="440" y="2820" as="targetPoint" />
          </mxGeometry>
        </mxCell>
        <mxCell id="Q2I1ikt3H9KRh0XBNsud-149" value="" style="shape=flexArrow;endArrow=classic;html=1;rounded=0;" edge="1" parent="1">
          <mxGeometry width="50" height="50" relative="1" as="geometry">
            <mxPoint x="370" y="2870" as="sourcePoint" />
            <mxPoint x="440" y="2870" as="targetPoint" />
          </mxGeometry>
        </mxCell>
        <mxCell id="Q2I1ikt3H9KRh0XBNsud-150" style="edgeStyle=orthogonalEdgeStyle;rounded=0;orthogonalLoop=1;jettySize=auto;html=1;exitX=0.5;exitY=1;exitDx=0;exitDy=0;" edge="1" parent="1" source="Q2I1ikt3H9KRh0XBNsud-136" target="Q2I1ikt3H9KRh0XBNsud-136">
          <mxGeometry relative="1" as="geometry" />
        </mxCell>
        <mxCell id="Q2I1ikt3H9KRh0XBNsud-151" value="" style="rounded=1;whiteSpace=wrap;html=1;fillColor=#dae8fc;strokeColor=#6c8ebf;" vertex="1" parent="1">
          <mxGeometry x="880" y="2760" width="270" height="230" as="geometry" />
        </mxCell>
        <mxCell id="Q2I1ikt3H9KRh0XBNsud-152" value="&lt;font style=&quot;font-size: 14px;&quot;&gt;临时表(23-11版本)&lt;/font&gt;" style="text;html=1;strokeColor=none;fillColor=none;align=center;verticalAlign=middle;whiteSpace=wrap;rounded=0;" vertex="1" parent="1">
          <mxGeometry x="940" y="2950" width="140" height="30" as="geometry" />
        </mxCell>
        <mxCell id="Q2I1ikt3H9KRh0XBNsud-153" value="session_record_local_2311" style="rounded=0;whiteSpace=wrap;html=1;fillColor=#ffe6cc;strokeColor=#d79b00;" vertex="1" parent="1">
          <mxGeometry x="930" y="2790" width="170" height="40" as="geometry" />
        </mxCell>
        <mxCell id="Q2I1ikt3H9KRh0XBNsud-154" value="security_event_local_2311" style="rounded=0;whiteSpace=wrap;html=1;fillColor=#ffe6cc;strokeColor=#d79b00;" vertex="1" parent="1">
          <mxGeometry x="930" y="2850" width="170" height="40" as="geometry" />
        </mxCell>
        <mxCell id="Q2I1ikt3H9KRh0XBNsud-155" value="。。。" style="rounded=0;whiteSpace=wrap;html=1;fillColor=#ffe6cc;strokeColor=#d79b00;" vertex="1" parent="1">
          <mxGeometry x="930" y="2900" width="170" height="40" as="geometry" />
        </mxCell>
        <mxCell id="Q2I1ikt3H9KRh0XBNsud-156" value="" style="shape=flexArrow;endArrow=classic;html=1;rounded=0;" edge="1" parent="1">
          <mxGeometry width="50" height="50" relative="1" as="geometry">
            <mxPoint x="770" y="2809.5" as="sourcePoint" />
            <mxPoint x="840" y="2809.5" as="targetPoint" />
          </mxGeometry>
        </mxCell>
        <mxCell id="Q2I1ikt3H9KRh0XBNsud-157" value="" style="shape=flexArrow;endArrow=classic;html=1;rounded=0;" edge="1" parent="1">
          <mxGeometry width="50" height="50" relative="1" as="geometry">
            <mxPoint x="770" y="2869.5" as="sourcePoint" />
            <mxPoint x="840" y="2869.5" as="targetPoint" />
          </mxGeometry>
        </mxCell>
        <mxCell id="Q2I1ikt3H9KRh0XBNsud-158" value="" style="html=1;shadow=0;dashed=0;align=center;verticalAlign=middle;shape=mxgraph.arrows2.uTurnArrow;dy=6.5;arrowHead=23;dx2=46;direction=west;fontSize=10;fillColor=#d5e8d4;strokeColor=#82b366;fillOpacity=100;" vertex="1" parent="1">
          <mxGeometry x="1100" y="2810" width="100" height="70" as="geometry" />
        </mxCell>
        <mxCell id="Q2I1ikt3H9KRh0XBNsud-159" value="" style="rounded=1;whiteSpace=wrap;html=1;fillColor=#dae8fc;strokeColor=#6c8ebf;" vertex="1" parent="1">
          <mxGeometry x="1340" y="2760" width="260" height="230" as="geometry" />
        </mxCell>
        <mxCell id="Q2I1ikt3H9KRh0XBNsud-160" value="&lt;font style=&quot;font-size: 14px;&quot;&gt;临时Gohangout任务&lt;/font&gt;" style="text;html=1;strokeColor=none;fillColor=none;align=center;verticalAlign=middle;whiteSpace=wrap;rounded=0;" vertex="1" parent="1">
          <mxGeometry x="1410" y="2955" width="160" height="30" as="geometry" />
        </mxCell>
        <mxCell id="Q2I1ikt3H9KRh0XBNsud-161" value="session_record_2311_task" style="rounded=0;whiteSpace=wrap;html=1;fillColor=#ffe6cc;strokeColor=#d79b00;" vertex="1" parent="1">
          <mxGeometry x="1390" y="2785" width="170" height="40" as="geometry" />
        </mxCell>
        <mxCell id="Q2I1ikt3H9KRh0XBNsud-163" value="。。。" style="rounded=0;whiteSpace=wrap;html=1;fillColor=#ffe6cc;strokeColor=#d79b00;" vertex="1" parent="1">
          <mxGeometry x="1390" y="2895" width="170" height="40" as="geometry" />
        </mxCell>
        <mxCell id="Q2I1ikt3H9KRh0XBNsud-164" value="" style="shape=flexArrow;endArrow=classic;html=1;rounded=0;" edge="1" parent="1">
          <mxGeometry width="50" height="50" relative="1" as="geometry">
            <mxPoint x="1290" y="2810" as="sourcePoint" />
            <mxPoint x="1220" y="2810" as="targetPoint" />
          </mxGeometry>
        </mxCell>
        <mxCell id="Q2I1ikt3H9KRh0XBNsud-165" value="" style="shape=flexArrow;endArrow=classic;html=1;rounded=0;" edge="1" parent="1">
          <mxGeometry width="50" height="50" relative="1" as="geometry">
            <mxPoint x="1300" y="2914.5" as="sourcePoint" />
            <mxPoint x="1230" y="2914.5" as="targetPoint" />
          </mxGeometry>
        </mxCell>
        <mxCell id="Q2I1ikt3H9KRh0XBNsud-166" value="" style="rounded=1;whiteSpace=wrap;html=1;fillColor=#dae8fc;strokeColor=#6c8ebf;" vertex="1" parent="1">
          <mxGeometry x="465" y="3100" width="270" height="230" as="geometry" />
        </mxCell>
        <mxCell id="Q2I1ikt3H9KRh0XBNsud-167" value="&lt;font color=&quot;#ff0000&quot; style=&quot;font-size: 14px;&quot;&gt;源表改为历史表&lt;/font&gt;" style="text;html=1;strokeColor=none;fillColor=none;align=center;verticalAlign=middle;whiteSpace=wrap;rounded=0;" vertex="1" parent="1">
          <mxGeometry x="525" y="3290" width="140" height="30" as="geometry" />
        </mxCell>
        <mxCell id="Q2I1ikt3H9KRh0XBNsud-168" value="session_record_local_old" style="rounded=0;whiteSpace=wrap;html=1;fillColor=#ffe6cc;strokeColor=#d79b00;" vertex="1" parent="1">
          <mxGeometry x="515" y="3130" width="170" height="40" as="geometry" />
        </mxCell>
        <mxCell id="Q2I1ikt3H9KRh0XBNsud-169" value="security_event_local_old" style="rounded=0;whiteSpace=wrap;html=1;fillColor=#ffe6cc;strokeColor=#d79b00;" vertex="1" parent="1">
          <mxGeometry x="515" y="3190" width="170" height="40" as="geometry" />
        </mxCell>
        <mxCell id="Q2I1ikt3H9KRh0XBNsud-170" value="。。。" style="rounded=0;whiteSpace=wrap;html=1;fillColor=#ffe6cc;strokeColor=#d79b00;" vertex="1" parent="1">
          <mxGeometry x="515" y="3240" width="170" height="40" as="geometry" />
        </mxCell>
        <mxCell id="Q2I1ikt3H9KRh0XBNsud-171" value="" style="rounded=1;whiteSpace=wrap;html=1;fillColor=#dae8fc;strokeColor=#6c8ebf;" vertex="1" parent="1">
          <mxGeometry x="860" y="3100" width="270" height="230" as="geometry" />
        </mxCell>
        <mxCell id="Q2I1ikt3H9KRh0XBNsud-172" value="&lt;font color=&quot;#ff0000&quot; style=&quot;font-size: 14px;&quot;&gt;临时表改为目标表&lt;/font&gt;" style="text;html=1;strokeColor=none;fillColor=none;align=center;verticalAlign=middle;whiteSpace=wrap;rounded=0;" vertex="1" parent="1">
          <mxGeometry x="920" y="3290" width="140" height="30" as="geometry" />
        </mxCell>
        <mxCell id="Q2I1ikt3H9KRh0XBNsud-173" value="session_record_local" style="rounded=0;whiteSpace=wrap;html=1;fillColor=#ffe6cc;strokeColor=#d79b00;" vertex="1" parent="1">
          <mxGeometry x="910" y="3130" width="170" height="40" as="geometry" />
        </mxCell>
        <mxCell id="Q2I1ikt3H9KRh0XBNsud-174" value="security_event_local" style="rounded=0;whiteSpace=wrap;html=1;fillColor=#ffe6cc;strokeColor=#d79b00;" vertex="1" parent="1">
          <mxGeometry x="910" y="3190" width="170" height="40" as="geometry" />
        </mxCell>
        <mxCell id="Q2I1ikt3H9KRh0XBNsud-175" value="。。。" style="rounded=0;whiteSpace=wrap;html=1;fillColor=#ffe6cc;strokeColor=#d79b00;" vertex="1" parent="1">
          <mxGeometry x="910" y="3240" width="170" height="40" as="geometry" />
        </mxCell>
        <mxCell id="Q2I1ikt3H9KRh0XBNsud-176" value="" style="html=1;shadow=0;dashed=0;align=center;verticalAlign=middle;shape=mxgraph.arrows2.uTurnArrow;dy=6.5;arrowHead=23;dx2=46;direction=west;fontSize=10;fillColor=#d5e8d4;strokeColor=#82b366;fillOpacity=100;" vertex="1" parent="1">
          <mxGeometry x="1080" y="3150" width="100" height="70" as="geometry" />
        </mxCell>
        <mxCell id="Q2I1ikt3H9KRh0XBNsud-185" value="" style="rounded=1;whiteSpace=wrap;html=1;fillColor=#dae8fc;strokeColor=#6c8ebf;" vertex="1" parent="1">
          <mxGeometry x="1330" y="3095" width="260" height="240" as="geometry" />
        </mxCell>
        <mxCell id="Q2I1ikt3H9KRh0XBNsud-186" value="&lt;font color=&quot;#ff0000&quot; style=&quot;font-size: 14px;&quot;&gt;目标表Gohangout任务&lt;/font&gt;" style="text;html=1;strokeColor=none;fillColor=none;align=center;verticalAlign=middle;whiteSpace=wrap;rounded=0;" vertex="1" parent="1">
          <mxGeometry x="1400" y="3290" width="160" height="30" as="geometry" />
        </mxCell>
        <mxCell id="Q2I1ikt3H9KRh0XBNsud-187" value="session_record_task" style="rounded=0;whiteSpace=wrap;html=1;fillColor=#ffe6cc;strokeColor=#d79b00;" vertex="1" parent="1">
          <mxGeometry x="1380" y="3120" width="170" height="40" as="geometry" />
        </mxCell>
        <mxCell id="Q2I1ikt3H9KRh0XBNsud-189" value="。。。" style="rounded=0;whiteSpace=wrap;html=1;fillColor=#ffe6cc;strokeColor=#d79b00;" vertex="1" parent="1">
          <mxGeometry x="1380" y="3230" width="170" height="40" as="geometry" />
        </mxCell>
        <mxCell id="Q2I1ikt3H9KRh0XBNsud-190" value="" style="shape=flexArrow;endArrow=classic;html=1;rounded=0;" edge="1" parent="1">
          <mxGeometry width="50" height="50" relative="1" as="geometry">
            <mxPoint x="1270" y="3150" as="sourcePoint" />
            <mxPoint x="1200" y="3150" as="targetPoint" />
          </mxGeometry>
        </mxCell>
        <mxCell id="Q2I1ikt3H9KRh0XBNsud-191" value="" style="shape=flexArrow;endArrow=classic;html=1;rounded=0;" edge="1" parent="1">
          <mxGeometry width="50" height="50" relative="1" as="geometry">
            <mxPoint x="1270" y="3249.5" as="sourcePoint" />
            <mxPoint x="1200" y="3249.5" as="targetPoint" />
          </mxGeometry>
        </mxCell>
        <mxCell id="Q2I1ikt3H9KRh0XBNsud-192" value="" style="rounded=1;whiteSpace=wrap;html=1;" vertex="1" parent="1">
          <mxGeometry x="30" y="3560" width="1600" height="380" as="geometry" />
        </mxCell>
        <mxCell id="Q2I1ikt3H9KRh0XBNsud-203" value="离线同步历史数据(历史表=&amp;gt;目标表)" style="text;strokeColor=none;fillColor=none;html=1;fontSize=24;fontStyle=1;verticalAlign=middle;align=center;" vertex="1" parent="1">
          <mxGeometry x="550" y="3890" width="600" height="40" as="geometry" />
        </mxCell>
        <mxCell id="Q2I1ikt3H9KRh0XBNsud-206" style="edgeStyle=orthogonalEdgeStyle;rounded=0;orthogonalLoop=1;jettySize=auto;html=1;exitX=0.5;exitY=1;exitDx=0;exitDy=0;" edge="1" parent="1" source="Q2I1ikt3H9KRh0XBNsud-192" target="Q2I1ikt3H9KRh0XBNsud-192">
          <mxGeometry relative="1" as="geometry" />
        </mxCell>
        <mxCell id="Q2I1ikt3H9KRh0XBNsud-222" value="&lt;font style=&quot;font-size: 14px;&quot;&gt;历史表&lt;/font&gt;" style="text;html=1;strokeColor=none;fillColor=none;align=center;verticalAlign=middle;whiteSpace=wrap;rounded=0;" vertex="1" parent="1">
          <mxGeometry x="200" y="3820" width="140" height="30" as="geometry" />
        </mxCell>
        <mxCell id="Q2I1ikt3H9KRh0XBNsud-223" value="session_record_local_old" style="rounded=0;whiteSpace=wrap;html=1;fillColor=#ffe6cc;strokeColor=#d79b00;" vertex="1" parent="1">
          <mxGeometry x="190" y="3660" width="170" height="40" as="geometry" />
        </mxCell>
        <mxCell id="Q2I1ikt3H9KRh0XBNsud-224" value="security_event_local_old" style="rounded=0;whiteSpace=wrap;html=1;fillColor=#ffe6cc;strokeColor=#d79b00;" vertex="1" parent="1">
          <mxGeometry x="190" y="3720" width="170" height="40" as="geometry" />
        </mxCell>
        <mxCell id="Q2I1ikt3H9KRh0XBNsud-225" value="。。。" style="rounded=0;whiteSpace=wrap;html=1;fillColor=#ffe6cc;strokeColor=#d79b00;" vertex="1" parent="1">
          <mxGeometry x="190" y="3770" width="170" height="40" as="geometry" />
        </mxCell>
        <mxCell id="Q2I1ikt3H9KRh0XBNsud-226" value="" style="rounded=1;whiteSpace=wrap;html=1;fillColor=#dae8fc;strokeColor=#6c8ebf;" vertex="1" parent="1">
          <mxGeometry x="840" y="3630" width="270" height="230" as="geometry" />
        </mxCell>
        <mxCell id="Q2I1ikt3H9KRh0XBNsud-227" value="&lt;font style=&quot;font-size: 14px;&quot;&gt;目标表&lt;/font&gt;" style="text;html=1;strokeColor=none;fillColor=none;align=center;verticalAlign=middle;whiteSpace=wrap;rounded=0;" vertex="1" parent="1">
          <mxGeometry x="900" y="3820" width="140" height="30" as="geometry" />
        </mxCell>
        <mxCell id="Q2I1ikt3H9KRh0XBNsud-228" value="session_record_local" style="rounded=0;whiteSpace=wrap;html=1;fillColor=#ffe6cc;strokeColor=#d79b00;" vertex="1" parent="1">
          <mxGeometry x="890" y="3660" width="170" height="40" as="geometry" />
        </mxCell>
        <mxCell id="Q2I1ikt3H9KRh0XBNsud-229" value="security_event_local" style="rounded=0;whiteSpace=wrap;html=1;fillColor=#ffe6cc;strokeColor=#d79b00;" vertex="1" parent="1">
          <mxGeometry x="890" y="3720" width="170" height="40" as="geometry" />
        </mxCell>
        <mxCell id="Q2I1ikt3H9KRh0XBNsud-230" value="。。。" style="rounded=0;whiteSpace=wrap;html=1;fillColor=#ffe6cc;strokeColor=#d79b00;" vertex="1" parent="1">
          <mxGeometry x="890" y="3770" width="170" height="40" as="geometry" />
        </mxCell>
        <mxCell id="Q2I1ikt3H9KRh0XBNsud-231" value="" style="html=1;shadow=0;dashed=0;align=center;verticalAlign=middle;shape=mxgraph.arrows2.uTurnArrow;dy=6.5;arrowHead=23;dx2=46;direction=west;fontSize=10;fillColor=#d5e8d4;strokeColor=#82b366;fillOpacity=100;" vertex="1" parent="1">
          <mxGeometry x="1060" y="3680" width="100" height="70" as="geometry" />
        </mxCell>
        <mxCell id="Q2I1ikt3H9KRh0XBNsud-232" value="" style="rounded=1;whiteSpace=wrap;html=1;fillColor=#dae8fc;strokeColor=#6c8ebf;" vertex="1" parent="1">
          <mxGeometry x="1310" y="3625" width="260" height="240" as="geometry" />
        </mxCell>
        <mxCell id="Q2I1ikt3H9KRh0XBNsud-233" value="&lt;font style=&quot;font-size: 14px;&quot;&gt;目标表Gohangout任务&lt;/font&gt;" style="text;html=1;strokeColor=none;fillColor=none;align=center;verticalAlign=middle;whiteSpace=wrap;rounded=0;" vertex="1" parent="1">
          <mxGeometry x="1380" y="3820" width="160" height="30" as="geometry" />
        </mxCell>
        <mxCell id="Q2I1ikt3H9KRh0XBNsud-234" value="session_record_task" style="rounded=0;whiteSpace=wrap;html=1;fillColor=#ffe6cc;strokeColor=#d79b00;" vertex="1" parent="1">
          <mxGeometry x="1360" y="3650" width="170" height="40" as="geometry" />
        </mxCell>
        <mxCell id="Q2I1ikt3H9KRh0XBNsud-235" value="。。。" style="rounded=0;whiteSpace=wrap;html=1;fillColor=#ffe6cc;strokeColor=#d79b00;" vertex="1" parent="1">
          <mxGeometry x="1360" y="3760" width="170" height="40" as="geometry" />
        </mxCell>
        <mxCell id="Q2I1ikt3H9KRh0XBNsud-236" value="" style="shape=flexArrow;endArrow=classic;html=1;rounded=0;" edge="1" parent="1">
          <mxGeometry width="50" height="50" relative="1" as="geometry">
            <mxPoint x="1250" y="3680" as="sourcePoint" />
            <mxPoint x="1180" y="3680" as="targetPoint" />
          </mxGeometry>
        </mxCell>
        <mxCell id="Q2I1ikt3H9KRh0XBNsud-237" value="" style="shape=flexArrow;endArrow=classic;html=1;rounded=0;" edge="1" parent="1">
          <mxGeometry width="50" height="50" relative="1" as="geometry">
            <mxPoint x="1250" y="3779.5" as="sourcePoint" />
            <mxPoint x="1180" y="3779.5" as="targetPoint" />
          </mxGeometry>
        </mxCell>
        <mxCell id="Q2I1ikt3H9KRh0XBNsud-242" value="" style="rounded=1;whiteSpace=wrap;html=1;fillColor=#dae8fc;strokeColor=#6c8ebf;" vertex="1" parent="1">
          <mxGeometry x="485" y="3625" width="270" height="230" as="geometry" />
        </mxCell>
        <mxCell id="Q2I1ikt3H9KRh0XBNsud-243" value="&lt;font color=&quot;#ff0000&quot; style=&quot;font-size: 14px;&quot;&gt;离线导入任务&lt;/font&gt;" style="text;html=1;strokeColor=none;fillColor=none;align=center;verticalAlign=middle;whiteSpace=wrap;rounded=0;" vertex="1" parent="1">
          <mxGeometry x="545" y="3815" width="140" height="30" as="geometry" />
        </mxCell>
        <mxCell id="Q2I1ikt3H9KRh0XBNsud-244" value="migrate_session_record_task" style="rounded=0;whiteSpace=wrap;html=1;fillColor=#ffe6cc;strokeColor=#d79b00;" vertex="1" parent="1">
          <mxGeometry x="520" y="3655" width="185" height="40" as="geometry" />
        </mxCell>
        <mxCell id="Q2I1ikt3H9KRh0XBNsud-245" value="migrate_security_event_task" style="rounded=0;whiteSpace=wrap;html=1;fillColor=#ffe6cc;strokeColor=#d79b00;" vertex="1" parent="1">
          <mxGeometry x="520" y="3715" width="185" height="40" as="geometry" />
        </mxCell>
        <mxCell id="Q2I1ikt3H9KRh0XBNsud-246" value="。。。" style="rounded=0;whiteSpace=wrap;html=1;fillColor=#ffe6cc;strokeColor=#d79b00;" vertex="1" parent="1">
          <mxGeometry x="520" y="3765" width="185" height="40" as="geometry" />
        </mxCell>
        <mxCell id="Q2I1ikt3H9KRh0XBNsud-247" value="" style="shape=flexArrow;endArrow=classic;html=1;rounded=0;" edge="1" parent="1">
          <mxGeometry width="50" height="50" relative="1" as="geometry">
            <mxPoint x="395" y="3684.5" as="sourcePoint" />
            <mxPoint x="465" y="3684.5" as="targetPoint" />
          </mxGeometry>
        </mxCell>
        <mxCell id="Q2I1ikt3H9KRh0XBNsud-248" value="" style="shape=flexArrow;endArrow=classic;html=1;rounded=0;" edge="1" parent="1">
          <mxGeometry width="50" height="50" relative="1" as="geometry">
            <mxPoint x="395" y="3739.5" as="sourcePoint" />
            <mxPoint x="465" y="3739.5" as="targetPoint" />
          </mxGeometry>
        </mxCell>
        <mxCell id="Q2I1ikt3H9KRh0XBNsud-254" value="" style="rounded=1;whiteSpace=wrap;html=1;fillColor=#dae8fc;strokeColor=#6c8ebf;" vertex="1" parent="1">
          <mxGeometry x="115" y="3635" width="270" height="225" as="geometry" />
        </mxCell>
        <mxCell id="Q2I1ikt3H9KRh0XBNsud-255" value="session_record_local_old" style="rounded=0;whiteSpace=wrap;html=1;fillColor=#ffe6cc;strokeColor=#d79b00;" vertex="1" parent="1">
          <mxGeometry x="165" y="3665" width="170" height="40" as="geometry" />
        </mxCell>
        <mxCell id="Q2I1ikt3H9KRh0XBNsud-256" value="security_event_local_old" style="rounded=0;whiteSpace=wrap;html=1;fillColor=#ffe6cc;strokeColor=#d79b00;" vertex="1" parent="1">
          <mxGeometry x="165" y="3725" width="170" height="40" as="geometry" />
        </mxCell>
        <mxCell id="Q2I1ikt3H9KRh0XBNsud-257" value="。。。" style="rounded=0;whiteSpace=wrap;html=1;fillColor=#ffe6cc;strokeColor=#d79b00;" vertex="1" parent="1">
          <mxGeometry x="165" y="3775" width="170" height="40" as="geometry" />
        </mxCell>
        <mxCell id="Q2I1ikt3H9KRh0XBNsud-258" value="&lt;font style=&quot;font-size: 14px;&quot;&gt;历史表&lt;/font&gt;" style="text;html=1;strokeColor=none;fillColor=none;align=center;verticalAlign=middle;whiteSpace=wrap;rounded=0;" vertex="1" parent="1">
          <mxGeometry x="175" y="3825" width="140" height="30" as="geometry" />
        </mxCell>
        <mxCell id="Q2I1ikt3H9KRh0XBNsud-259" value="" style="rounded=1;whiteSpace=wrap;html=1;fillColor=#dae8fc;strokeColor=#6c8ebf;" vertex="1" parent="1">
          <mxGeometry x="115" y="3630" width="270" height="230" as="geometry" />
        </mxCell>
        <mxCell id="Q2I1ikt3H9KRh0XBNsud-260" value="session_record_local_old" style="rounded=0;whiteSpace=wrap;html=1;fillColor=#ffe6cc;strokeColor=#d79b00;" vertex="1" parent="1">
          <mxGeometry x="165" y="3660" width="170" height="40" as="geometry" />
        </mxCell>
        <mxCell id="Q2I1ikt3H9KRh0XBNsud-261" value="security_event_local_old" style="rounded=0;whiteSpace=wrap;html=1;fillColor=#ffe6cc;strokeColor=#d79b00;" vertex="1" parent="1">
          <mxGeometry x="165" y="3720" width="170" height="40" as="geometry" />
        </mxCell>
        <mxCell id="Q2I1ikt3H9KRh0XBNsud-262" value="。。。" style="rounded=0;whiteSpace=wrap;html=1;fillColor=#ffe6cc;strokeColor=#d79b00;" vertex="1" parent="1">
          <mxGeometry x="165" y="3770" width="170" height="40" as="geometry" />
        </mxCell>
        <mxCell id="Q2I1ikt3H9KRh0XBNsud-263" value="&lt;font style=&quot;font-size: 14px;&quot;&gt;历史表&lt;/font&gt;" style="text;html=1;strokeColor=none;fillColor=none;align=center;verticalAlign=middle;whiteSpace=wrap;rounded=0;" vertex="1" parent="1">
          <mxGeometry x="175" y="3820" width="140" height="30" as="geometry" />
        </mxCell>
        <mxCell id="Q2I1ikt3H9KRh0XBNsud-264" value="" style="shape=flexArrow;endArrow=classic;html=1;rounded=0;" edge="1" parent="1">
          <mxGeometry width="50" height="50" relative="1" as="geometry">
            <mxPoint x="760" y="3679" as="sourcePoint" />
            <mxPoint x="830" y="3679" as="targetPoint" />
          </mxGeometry>
        </mxCell>
        <mxCell id="Q2I1ikt3H9KRh0XBNsud-265" value="" style="shape=flexArrow;endArrow=classic;html=1;rounded=0;" edge="1" parent="1">
          <mxGeometry width="50" height="50" relative="1" as="geometry">
            <mxPoint x="760" y="3734.5" as="sourcePoint" />
            <mxPoint x="830" y="3734.5" as="targetPoint" />
          </mxGeometry>
        </mxCell>
        <mxCell id="Q2I1ikt3H9KRh0XBNsud-269" value="" style="shape=mxgraph.mockup.markup.redX;fillColor=#ff0000;html=1;shadow=0;whiteSpace=wrap;strokeColor=none;fillOpacity=50;strokeOpacity=50;" vertex="1" parent="1">
          <mxGeometry x="182.5" y="2955" width="65" height="50" as="geometry" />
        </mxCell>
        <mxCell id="Q2I1ikt3H9KRh0XBNsud-272" value="" style="shape=singleArrow;direction=south;whiteSpace=wrap;html=1;fillColor=#60a917;strokeColor=#2D7600;fontColor=#ffffff;" vertex="1" parent="1">
          <mxGeometry x="580" y="3000" width="40" height="90" as="geometry" />
        </mxCell>
        <mxCell id="Q2I1ikt3H9KRh0XBNsud-273" value="" style="shape=singleArrow;direction=south;whiteSpace=wrap;html=1;fillColor=#60a917;strokeColor=#2D7600;fontColor=#ffffff;" vertex="1" parent="1">
          <mxGeometry x="990" y="3000" width="40" height="90" as="geometry" />
        </mxCell>
        <mxCell id="Q2I1ikt3H9KRh0XBNsud-274" value="" style="shape=singleArrow;direction=south;whiteSpace=wrap;html=1;fillColor=#60a917;strokeColor=#2D7600;fontColor=#ffffff;" vertex="1" parent="1">
          <mxGeometry x="1460" y="3005" width="40" height="80" as="geometry" />
        </mxCell>
      </root>
    </mxGraphModel>
  </diagram>
</mxfile>
